<svg width="20" height="20" viewBox="0 0 20 20" fill="none" xmlns="http://www.w3.org/2000/svg">
<path d="M10 1.66675C5.40501 1.66675 1.66667 5.40508 1.66667 10.0001C1.66667 14.5951 5.40501 18.3334 10 18.3334C14.595 18.3334 18.3333 14.5951 18.3333 10.0001C18.3333 5.40508 14.595 1.66675 10 1.66675ZM10 16.6667C6.32417 16.6667 3.33334 13.6759 3.33334 10.0001C3.33334 6.32425 6.32417 3.33341 10 3.33341C13.6758 3.33341 16.6667 6.32425 16.6667 10.0001C16.6667 13.6759 13.6758 16.6667 10 16.6667Z" fill="#333333"/>
<path d="M8.33251 11.3226L6.41667 9.41006L5.24001 10.5901L8.33417 13.6776L13.9225 8.08922L12.7442 6.91089L8.33251 11.3226Z" fill="#333333"/>
</svg>
