<svg width="20" height="20" viewBox="0 0 20 20" fill="none" xmlns="http://www.w3.org/2000/svg">
<path d="M9.99999 18.3333C10.9205 18.3333 11.6667 17.5871 11.6667 16.6667C11.6667 15.7462 10.9205 15 9.99999 15C9.07952 15 8.33333 15.7462 8.33333 16.6667C8.33333 17.5871 9.07952 18.3333 9.99999 18.3333Z" fill="#333333"/>
<path d="M9.99999 5.00008C10.9205 5.00008 11.6667 4.25389 11.6667 3.33341C11.6667 2.41294 10.9205 1.66675 9.99999 1.66675C9.07952 1.66675 8.33333 2.41294 8.33333 3.33341C8.33333 4.25389 9.07952 5.00008 9.99999 5.00008Z" fill="#333333"/>
<path d="M5.28584 16.3809C6.20631 16.3809 6.9525 15.6347 6.9525 14.7143C6.9525 13.7938 6.20631 13.0476 5.28584 13.0476C4.36536 13.0476 3.61917 13.7938 3.61917 14.7143C3.61917 15.6347 4.36536 16.3809 5.28584 16.3809Z" fill="#333333"/>
<path d="M14.7142 6.95247C15.6346 6.95247 16.3808 6.20628 16.3808 5.28581C16.3808 4.36533 15.6346 3.61914 14.7142 3.61914C13.7937 3.61914 13.0475 4.36533 13.0475 5.28581C13.0475 6.20628 13.7937 6.95247 14.7142 6.95247Z" fill="#333333"/>
<path d="M3.33333 11.6675C4.25427 11.6675 5.00083 10.921 5.00083 10C5.00083 9.07908 4.25427 8.33252 3.33333 8.33252C2.4124 8.33252 1.66583 9.07908 1.66583 10C1.66583 10.921 2.4124 11.6675 3.33333 11.6675Z" fill="#333333"/>
<path d="M16.6667 11.6666C17.5871 11.6666 18.3333 10.9204 18.3333 9.99992C18.3333 9.07944 17.5871 8.33325 16.6667 8.33325C15.7462 8.33325 15 9.07944 15 9.99992C15 10.9204 15.7462 11.6666 16.6667 11.6666Z" fill="#333333"/>
<path d="M5.28584 6.95345C6.20631 6.95345 6.9525 6.20726 6.9525 5.28678C6.9525 4.36631 6.20631 3.62012 5.28584 3.62012C4.36536 3.62012 3.61917 4.36631 3.61917 5.28678C3.61917 6.20726 4.36536 6.95345 5.28584 6.95345Z" fill="#333333"/>
<path d="M14.7142 16.3817C15.6346 16.3817 16.3808 15.6355 16.3808 14.715C16.3808 13.7945 15.6346 13.0483 14.7142 13.0483C13.7937 13.0483 13.0475 13.7945 13.0475 14.715C13.0475 15.6355 13.7937 16.3817 14.7142 16.3817Z" fill="#333333"/>
</svg>
