<svg width="36" height="36" viewBox="0 0 36 36" fill="none" xmlns="http://www.w3.org/2000/svg">
<rect width="36" height="36" transform="translate(0 -0.000976562)" fill="transparent"/>
<g clip-path="url(#clip0_3069_3843)">
<path d="M13 16.999H15V18.999H13V16.999ZM13 20.999H15V22.999H13V20.999ZM17 16.999H19V18.999H17V16.999ZM17 20.999H19V22.999H17V20.999ZM21 16.999H23V18.999H21V16.999ZM21 20.999H23V22.999H21V20.999Z" fill="#FF8000"/>
<path d="M9.44444 29.999H26.5556C27.9037 29.999 29 28.9226 29 27.599V10.799C29 9.47542 27.9037 8.39902 26.5556 8.39902H24.1111V5.99902H21.6667V8.39902H14.3333V5.99902H11.8889V8.39902H9.44444C8.09633 8.39902 7 9.47542 7 10.799V27.599C7 28.9226 8.09633 29.999 9.44444 29.999ZM27 11.999V27.999H9V11.999H27Z" fill="#FF8000"/>
</g>
<defs>
<clipPath id="clip0_3069_3843">
<rect width="24" height="24" fill="white" transform="translate(6 5.99902)"/>
</clipPath>
</defs>
</svg>
