<svg width="36" height="36" viewBox="0 0 36 36" fill="none" xmlns="http://www.w3.org/2000/svg">
<path d="M17.7039 18.994C17.7597 19.0007 17.816 19.0007 17.8718 18.994L20.6693 18.2948C20.7934 18.2653 20.907 18.2025 20.998 18.113L29.5933 9.49242C29.8538 9.23042 30 8.87602 30 8.5066C30 8.13719 29.8538 7.78278 29.5933 7.52079L28.4882 6.40913C28.3583 6.27912 28.2041 6.17598 28.0343 6.10561C27.8645 6.03524 27.6824 5.99902 27.4986 5.99902C27.3148 5.99902 27.1328 6.03524 26.963 6.10561C26.7932 6.17598 26.6389 6.27912 26.509 6.40913L17.9137 15.0018C17.8234 15.0931 17.7583 15.2063 17.7249 15.3304L17.0255 18.127C17.0004 18.2175 16.9937 18.3121 17.006 18.4052C17.0182 18.4983 17.049 18.5879 17.0967 18.6688C17.1443 18.7498 17.2078 18.8202 17.2833 18.8761C17.3588 18.932 17.4447 18.972 17.5361 18.994C17.5918 19.0007 17.6482 19.0007 17.7039 18.994ZM27.4951 7.39494L28.6071 8.5066L27.4951 9.61827L26.3901 8.5066L27.4951 7.39494ZM19.0397 15.8548L25.397 9.49242L26.509 10.6041L20.1447 16.9664L18.669 17.33L19.0397 15.8548Z" fill="#FF0066"/>
<path fill-rule="evenodd" clip-rule="evenodd" d="M23.021 5.99902H10C8.89543 5.99902 8 6.89445 8 7.99902V27.999C8 29.1036 8.89543 29.999 10 29.999H26C27.1046 29.999 28 29.1036 28 27.999V15.1622L26 17.1622V27.999H10V7.99902H21.021L23.021 5.99902Z" fill="#FF0066"/>
</svg>
