<svg width="20" height="20" viewBox="0 0 20 20" fill="none" xmlns="http://www.w3.org/2000/svg">
<path d="M12.3566 6.46415L7.64325 11.1783C7.56365 11.2552 7.50017 11.3471 7.4565 11.4488C7.41282 11.5505 7.38983 11.6598 7.38887 11.7705C7.38791 11.8811 7.40899 11.9909 7.4509 12.0933C7.4928 12.1957 7.55467 12.2887 7.63292 12.367C7.71116 12.4452 7.8042 12.5071 7.90662 12.549C8.00903 12.5909 8.11877 12.612 8.22941 12.611C8.34006 12.6101 8.44941 12.5871 8.55108 12.5434C8.65275 12.4997 8.74471 12.4362 8.82158 12.3567L13.5357 7.64332C14.0046 7.17444 14.268 6.5385 14.268 5.8754C14.268 5.21231 14.0046 4.57637 13.5357 4.10749C13.0669 3.63861 12.4309 3.37519 11.7678 3.37519C11.1047 3.37519 10.4688 3.63861 9.99991 4.10749L5.28575 8.82165C4.89081 9.20676 4.57627 9.66645 4.36038 10.1741C4.14448 10.6817 4.03153 11.2271 4.02808 11.7787C4.02462 12.3303 4.13073 12.8771 4.34024 13.3874C4.54976 13.8977 4.85851 14.3613 5.24859 14.7513C5.63867 15.1413 6.10232 15.45 6.61263 15.6595C7.12293 15.8689 7.66975 15.9749 8.22136 15.9714C8.77297 15.9679 9.31838 15.8548 9.82596 15.6389C10.3335 15.4229 10.7932 15.1083 11.1782 14.7133L15.8924 9.99999L17.0707 11.1783L12.3566 15.8925C11.8149 16.4342 11.1718 16.8639 10.464 17.1571C9.75625 17.4502 8.99766 17.6011 8.23158 17.6011C7.4655 17.6011 6.70691 17.4502 5.99915 17.1571C5.29138 16.8639 4.64828 16.4342 4.10658 15.8925C3.56488 15.3508 3.13518 14.7077 2.84201 13.9999C2.54884 13.2922 2.39795 12.5336 2.39795 11.7675C2.39795 11.0014 2.54884 10.2428 2.84201 9.53505C3.13518 8.82729 3.56488 8.18419 4.10658 7.64249L8.82158 2.92915C9.60742 2.17016 10.6599 1.75019 11.7524 1.75968C12.8449 1.76917 13.89 2.20738 14.6625 2.97991C15.435 3.75244 15.8732 4.7975 15.8827 5.88998C15.8922 6.98247 15.4722 8.03498 14.7132 8.82082L9.99991 13.5367C9.76769 13.7688 9.49202 13.953 9.18863 14.0786C8.88524 14.2042 8.56007 14.2689 8.2317 14.2688C7.90333 14.2688 7.57818 14.2041 7.27482 14.0784C6.97146 13.9527 6.69583 13.7685 6.46366 13.5362C6.2315 13.304 6.04734 13.0283 5.92172 12.725C5.79609 12.4216 5.73145 12.0964 5.73149 11.768C5.73153 11.4397 5.79624 11.1145 5.92194 10.8111C6.04764 10.5078 6.23186 10.2322 6.46408 9.99999L11.1782 5.28582L12.3566 6.46415Z" fill="#08A652"/>
</svg>
