<svg width="20" height="20" viewBox="0 0 20 20" fill="none" xmlns="http://www.w3.org/2000/svg">
<path d="M7.64333 13.5351L10 11.1784L12.3567 13.5351L13.535 12.3568L11.1783 10.0001L13.535 7.64342L12.3567 6.46509L10 8.82176L7.64333 6.46509L6.465 7.64342L8.82166 10.0001L6.465 12.3568L7.64333 13.5351Z" fill="#666666"/>
<path d="M9.99999 18.3334C14.595 18.3334 18.3333 14.5951 18.3333 10.0001C18.3333 5.40508 14.595 1.66675 9.99999 1.66675C5.40499 1.66675 1.66666 5.40508 1.66666 10.0001C1.66666 14.5951 5.40499 18.3334 9.99999 18.3334ZM9.99999 3.33341C13.6758 3.33341 16.6667 6.32425 16.6667 10.0001C16.6667 13.6759 13.6758 16.6667 9.99999 16.6667C6.32416 16.6667 3.33332 13.6759 3.33332 10.0001C3.33332 6.32425 6.32416 3.33341 9.99999 3.33341Z" fill="#666666"/>
</svg>
