<svg xmlns="http://www.w3.org/2000/svg" width="32" height="32" fill="none" viewBox="0 0 32 32">
  <path fill="#666" d="M9.999 14.667a2 2 0 100-4 2 2 0 000 4zM13.999 18.667l-2-2.667-4 5.333h16l-6-8-4 5.334z"/>
  <path fill="#666" d="M27.2 5H4.8C3.256 5 2 6.233 2 7.75v16.5C2 25.767 3.256 27 4.8 27h22.4c1.544 0 2.8-1.233 2.8-2.75V7.75C30 6.233 28.744 5 27.2 5zM4.5 24.5C3.948 23.948 4 23 4 23V9s-.052-.948.5-1.5S6 7 6 7h20s.948-.052 1.5.5S28 9 28 9v14s.052.948-.5 1.5-1.5.5-1.5.5H6s-.948.052-1.5-.5z"/>
</svg>
