<svg width="20" height="20" viewBox="0 0 20 20" fill="none" xmlns="http://www.w3.org/2000/svg">
<path d="M16.6667 2.5H3.33341C2.89139 2.5 2.46746 2.67559 2.1549 2.98816C1.84234 3.30072 1.66675 3.72464 1.66675 4.16667V5.83333C1.6685 6.12419 1.74635 6.40952 1.89254 6.66097C2.03873 6.91243 2.24818 7.12124 2.50008 7.26667V15.8333C2.50008 16.2754 2.67568 16.6993 2.98824 17.0118C3.3008 17.3244 3.72472 17.5 4.16675 17.5H15.8334C16.2754 17.5 16.6994 17.3244 17.0119 17.0118C17.3245 16.6993 17.5001 16.2754 17.5001 15.8333V7.26667C17.752 7.12124 17.9614 6.91243 18.1076 6.66097C18.2538 6.40952 18.3317 6.12419 18.3334 5.83333V4.16667C18.3334 3.72464 18.1578 3.30072 17.8453 2.98816C17.5327 2.67559 17.1088 2.5 16.6667 2.5ZM3.33341 4.16667H16.6667V5.83333H3.33341V4.16667ZM4.16675 15.8333V7.5H15.8334V15.8333H4.16675Z" fill="#666666"/>
<path d="M6.66675 9.1665H13.3334V10.8332H6.66675V9.1665Z" fill="#666666"/>
</svg>
