<svg width="20" height="20" viewBox="0 0 20 20" fill="none" xmlns="http://www.w3.org/2000/svg">
<path d="M10.0001 1.6665C5.40508 1.6665 1.66675 5.40484 1.66675 9.99984C1.66675 14.5948 5.40508 18.3332 10.0001 18.3332C14.5951 18.3332 18.3334 14.5948 18.3334 9.99984C18.3334 5.40484 14.5951 1.6665 10.0001 1.6665ZM10.0001 16.6665C6.32425 16.6665 3.33341 13.6757 3.33341 9.99984C3.33341 6.324 6.32425 3.33317 10.0001 3.33317C13.6759 3.33317 16.6667 6.324 16.6667 9.99984C16.6667 13.6757 13.6759 16.6665 10.0001 16.6665Z" fill="#08A652"/>
<path d="M5.24414 11.0776L6.42247 12.2559L9.99997 8.67844L13.5775 12.2559L14.7558 11.0776L9.99997 6.32178L5.24414 11.0776Z" fill="#08A652"/>
</svg>
