<svg width="20" height="20" viewBox="0 0 20 20" fill="none" xmlns="http://www.w3.org/2000/svg">
<path d="M18.0884 4.40984L15.5893 1.91067C15.512 1.83314 15.4202 1.77165 15.3191 1.72974C15.2179 1.68784 15.1095 1.66635 15.0001 1.6665H5.00008C4.89063 1.66635 4.78223 1.68784 4.68111 1.72974C4.58 1.77165 4.48817 1.83314 4.41092 1.91067L1.91175 4.40984C1.83389 4.48707 1.77214 4.57899 1.73008 4.68027C1.68803 4.78155 1.6665 4.89017 1.66675 4.99984V15.8332C1.66675 16.7523 2.41425 17.4998 3.33342 17.4998H16.6667C17.5859 17.4998 18.3334 16.7523 18.3334 15.8332V4.99984C18.3337 4.89017 18.3121 4.78155 18.2701 4.68027C18.228 4.57899 18.1663 4.48707 18.0884 4.40984ZM5.34508 3.33317H14.6551L15.4884 4.1665H4.51175L5.34508 3.33317ZM3.33342 15.8332V5.83317H16.6667L16.6684 15.8332H3.33342Z" fill="black"/>
<path d="M11.6666 7.5H8.33325V10H5.83325L9.99992 14.1667L14.1666 10H11.6666V7.5Z" fill="black"/>
</svg>
