<svg width="24" height="24" viewBox="0 0 24 24" fill="none" xmlns="http://www.w3.org/2000/svg">
<path d="M12.001 7.37695C13.2274 7.37695 14.4035 7.86412 15.2707 8.73129C16.1378 9.59846 16.625 10.7746 16.625 12.001C16.625 13.2273 16.1378 14.4034 15.2707 15.2706C14.4035 16.1378 13.2274 16.625 12.001 16.625C10.7746 16.625 9.59851 16.1378 8.73134 15.2706C7.86417 14.4034 7.377 13.2273 7.377 12.001C7.377 10.7746 7.86417 9.59846 8.73134 8.73129C9.59851 7.86412 10.7746 7.37695 12.001 7.37695ZM12.001 15.004C12.7977 15.004 13.5618 14.6875 14.1251 14.1241C14.6885 13.5607 15.005 12.7967 15.005 12C15.005 11.2032 14.6885 10.4392 14.1251 9.87581C13.5618 9.31245 12.7977 8.99595 12.001 8.99595C11.2043 8.99595 10.4402 9.31245 9.87685 9.87581C9.31349 10.4392 8.997 11.2032 8.997 12C8.997 12.7967 9.31349 13.5607 9.87685 14.1241C10.4402 14.6875 11.2043 15.004 12.001 15.004Z" fill="#333333"/>
<path d="M7.19422 8.28491C6.59886 8.28491 6.11622 7.80227 6.11622 7.20691C6.11622 6.61154 6.59886 6.12891 7.19422 6.12891C7.78958 6.12891 8.27222 6.61154 8.27222 7.20691C8.27222 7.80227 7.78958 8.28491 7.19422 8.28491Z" fill="#333333"/>
<path d="M3.46729 6.11088C3.69879 5.51306 4.05256 4.97017 4.50596 4.51694C4.95936 4.06372 5.50239 3.71015 6.1003 3.47888C6.79996 3.21624 7.53912 3.07422 8.28629 3.05888C9.24929 3.01688 9.55429 3.00488 11.9963 3.00488C14.4383 3.00488 14.7513 3.00488 15.7063 3.05888C16.4529 3.07344 17.1915 3.21548 17.8903 3.47888C18.4884 3.70988 19.0315 4.06335 19.485 4.51661C19.9384 4.96987 20.2921 5.51291 20.5233 6.11088C20.786 6.8105 20.9277 7.54972 20.9423 8.29688C20.9853 9.25888 20.9983 9.56388 20.9983 12.0069C20.9983 14.4489 20.9983 14.7599 20.9423 15.7169C20.9273 16.4649 20.7863 17.2029 20.5233 17.9039C20.2914 18.5016 19.9374 19.0445 19.4839 19.4977C19.0303 19.9509 18.4872 20.3045 17.8893 20.5359C17.1919 20.8091 16.4529 20.9613 15.7043 20.9859C14.7413 21.0279 14.4363 21.0409 11.9943 21.0409C9.55229 21.0409 9.23929 21.0409 8.28429 20.9859C7.53719 20.9707 6.79806 20.829 6.09829 20.5669C5.50054 20.3351 4.95767 19.9812 4.50432 19.5279C4.05098 19.0745 3.69711 18.5316 3.4653 17.9339C3.2023 17.2339 3.0613 16.4959 3.0463 15.7479C3.0033 14.7859 2.9903 14.4809 2.9903 12.0379C2.9903 9.59488 2.9903 9.28488 3.0463 8.32788C3.05794 7.57016 3.20036 6.82013 3.46729 6.11088ZM4.6853 15.6429C4.69174 16.2192 4.79693 16.7901 4.9963 17.3309C5.14647 17.7198 5.37637 18.0729 5.67122 18.3676C5.96607 18.6622 6.31934 18.8919 6.70829 19.0419C7.24307 19.2403 7.80793 19.3455 8.37829 19.3529C9.32829 19.3969 9.59629 19.4079 12.0323 19.4079C14.4703 19.4079 14.7193 19.4079 15.6873 19.3529C16.2574 19.3459 16.822 19.2407 17.3563 19.0419C17.7466 18.8929 18.1013 18.6636 18.3974 18.3688C18.6935 18.0741 18.9245 17.7205 19.0753 17.3309C19.2718 16.7959 19.377 16.2317 19.3863 15.6619C19.4293 14.7119 19.4393 14.4439 19.4393 12.0079C19.4393 9.57088 19.4393 9.32188 19.3863 8.35288C19.3798 7.77691 19.2746 7.2063 19.0753 6.66588C18.7703 5.87688 18.1453 5.25588 17.3563 4.95388C16.8217 4.75602 16.2573 4.65085 15.6873 4.64288C14.7363 4.59988 14.4693 4.58788 12.0323 4.58788C9.59529 4.58788 9.34529 4.58788 8.37829 4.64288C7.80789 4.64974 7.24294 4.75495 6.70829 4.95388C6.31937 5.10416 5.96615 5.33408 5.67132 5.62891C5.3765 5.92374 5.14657 6.27695 4.9963 6.66588C4.79974 7.20083 4.69461 7.76504 4.6853 8.33488C4.6423 9.28588 4.6313 9.55288 4.6313 11.9899C4.6313 14.4259 4.6313 14.6879 4.6743 15.6439H4.6853V15.6429Z" fill="#333333"/>
</svg>
