<svg width="24" height="24" viewBox="0 0 24 24" fill="none" xmlns="http://www.w3.org/2000/svg">
<path d="M21.5788 6.85507C21.7188 6.39007 21.5788 6.04907 20.9168 6.04907H18.7238C18.1658 6.04907 17.9108 6.34407 17.7708 6.66807C17.7708 6.66807 16.6558 9.38707 15.0758 11.1501C14.5658 11.6631 14.3328 11.8251 14.0548 11.8251C13.9158 11.8251 13.7138 11.6631 13.7138 11.1981V6.85507C13.7138 6.29707 13.5528 6.04907 13.0878 6.04907H9.64175C9.29375 6.04907 9.08375 6.30707 9.08375 6.55307C9.08375 7.08107 9.87375 7.20307 9.95475 8.69107V11.9191C9.95475 12.6261 9.82775 12.7551 9.54775 12.7551C8.80476 12.7551 6.99675 10.0261 5.92375 6.90207C5.71476 6.29507 5.50376 6.05007 4.94376 6.05007H2.75176C2.12476 6.05007 1.99976 6.34507 1.99976 6.66907C1.99976 7.25107 2.74276 10.1311 5.46076 13.9401C7.27276 16.5411 9.82375 17.9511 12.1478 17.9511C13.5408 17.9511 13.7128 17.6381 13.7128 17.0981V15.1321C13.7128 14.5061 13.8458 14.3801 14.2868 14.3801C14.6108 14.3801 15.1688 14.5441 16.4698 15.7971C17.9558 17.2831 18.2018 17.9501 19.0368 17.9501H21.2288C21.8548 17.9501 22.1678 17.6371 21.9878 17.0191C21.7908 16.4041 21.0808 15.5091 20.1388 14.4501C19.6268 13.8461 18.8618 13.1961 18.6288 12.8711C18.3038 12.4521 18.3978 12.2671 18.6288 11.8951C18.6298 11.8961 21.3008 8.13407 21.5788 6.85507Z" fill="#333333"/>
</svg>
