<svg width="24" height="24" viewBox="0 0 24 24" fill="none" xmlns="http://www.w3.org/2000/svg">
<path fill-rule="evenodd" clip-rule="evenodd" d="M18.4028 5.63303C17.5711 4.79591 16.5816 4.13214 15.4916 3.68018C14.4016 3.22821 13.2327 2.99703 12.0528 3.00003C7.10476 3.00003 3.07676 7.02703 3.07476 11.977C3.07476 13.559 3.48776 15.103 4.27276 16.465L2.99976 21.116L7.75876 19.867C9.07515 20.5836 10.55 20.9594 12.0488 20.96H12.0528C16.9998 20.96 21.0278 16.933 21.0298 11.983C21.0332 10.8035 20.8027 9.63502 20.3518 8.54509C19.9009 7.45516 19.2385 6.4654 18.4028 5.63303ZM12.0528 19.445H12.0498C10.7133 19.4452 9.40139 19.0856 8.25176 18.404L7.97976 18.242L5.15576 18.983L5.90876 16.23L5.73176 15.948C4.98454 14.7585 4.58899 13.3818 4.59076 11.977C4.59276 7.86303 7.93976 4.51603 12.0558 4.51603C13.036 4.51385 14.007 4.70611 14.9124 5.08168C15.8179 5.45725 16.6398 6.00867 17.3308 6.70403C18.0254 7.39607 18.5759 8.21892 18.9506 9.12503C19.3253 10.0311 19.5167 11.0025 19.5138 11.983C19.5118 16.097 16.1648 19.445 12.0528 19.445ZM16.1458 13.856C15.9208 13.743 14.8188 13.201 14.6128 13.126C14.4078 13.051 14.2588 13.014 14.1088 13.238C13.9588 13.462 13.5288 13.967 13.3978 14.117C13.2668 14.267 13.1358 14.285 12.9118 14.173C12.6878 14.061 11.9648 13.824 11.1078 13.06C10.4408 12.465 9.99076 11.731 9.85976 11.506C9.72876 11.281 9.84576 11.16 9.95876 11.048C10.0598 10.948 10.1828 10.786 10.2948 10.655C10.4068 10.524 10.4438 10.431 10.5188 10.281C10.5938 10.131 10.5568 10 10.4998 9.88803C10.4438 9.77503 9.99476 8.67103 9.80776 8.22203C9.62676 7.78703 9.44176 7.84503 9.30376 7.83903C9.16083 7.83318 9.0178 7.83052 8.87476 7.83103C8.76101 7.83393 8.64909 7.86029 8.54602 7.90848C8.44294 7.95666 8.35093 8.02562 8.27576 8.11103C8.06976 8.33603 7.49076 8.87803 7.49076 9.98203C7.49076 11.086 8.29476 12.153 8.40676 12.303C8.51876 12.453 9.98876 14.718 12.2388 15.69C12.7748 15.921 13.1928 16.059 13.5178 16.163C14.0548 16.334 14.5438 16.309 14.9308 16.252C15.3618 16.188 16.2578 15.71 16.4448 15.186C16.6318 14.662 16.6318 14.213 16.5758 14.119C16.5198 14.025 16.3688 13.968 16.1458 13.856Z" fill="#333333"/>
</svg>
