<svg width="36" height="36" viewBox="0 0 36 36" fill="none" xmlns="http://www.w3.org/2000/svg">
    <path fill-rule="evenodd" clip-rule="evenodd" d="M22.1667 17.9977V19.6666C22.1667 19.8883 22.2542 20.1 22.4108 20.2558L23.8333 21.6783V22.1666H12.1667V21.6783L13.5892 20.2558C13.6667 20.1785 13.7282 20.0867 13.7701 19.9856C13.812 19.8845 13.8335 19.7761 13.8333 19.6666V16.3333C13.8333 14.7456 14.726 13.3624 16.0358 12.6593C16.0121 12.4428 16 12.2228 16 12C16 11.5959 16.04 11.2011 16.1161 10.8193C13.8229 11.6047 12.1667 13.7765 12.1667 16.3333V19.3216L10.7442 20.7441C10.6666 20.8214 10.6051 20.9132 10.5632 21.0143C10.5213 21.1154 10.4998 21.2238 10.5 21.3333V23C10.5 23.221 10.5878 23.4329 10.7441 23.5892C10.9004 23.7455 11.1123 23.8333 11.3333 23.8333H24.6667C24.8877 23.8333 25.0996 23.7455 25.2559 23.5892C25.4122 23.4329 25.5 23.221 25.5 23V21.3333C25.5002 21.2238 25.4787 21.1154 25.4368 21.0143C25.3949 20.9132 25.3334 20.8214 25.2558 20.7441L23.8333 19.3216V17.7147C23.3058 17.8838 22.7465 17.9819 22.1667 17.9977ZM19.4404 25.8751C19.0195 26.1738 18.5161 26.3339 18 26.3333C17.4839 26.3339 16.9805 26.1738 16.5596 25.8751C16.1387 25.5764 15.8214 25.154 15.6517 24.6666H20.3483C20.1786 25.154 19.8613 25.5764 19.4404 25.8751Z" fill="#333333"/>
    <circle cx="22" cy="12" r="4" fill="#FF8000"/>
</svg>
